<svg width="99" height="100" viewBox="0 0 99 100" fill="none" xmlns="http://www.w3.org/2000/svg">
<path d="M2.12466 49.4016C2.12234 57.8035 4.31216 66.0074 8.47606 73.2384L1.72644 97.9446L26.9465 91.3151C33.922 95.1221 41.7376 97.1169 49.6798 97.1175H49.7006C75.9193 97.1175 97.2619 75.7287 97.2731 49.4392C97.2782 36.7 92.3341 24.7209 83.3513 15.7085C74.3701 6.6969 62.4255 1.7314 49.6987 1.72559C23.4769 1.72559 2.13587 23.1132 2.12505 49.4016" fill="url(#paint0_linear_22_110)"/>
<path d="M0.426379 49.386C0.423673 58.0903 2.69198 66.5876 7.00434 74.0775L0.0126953 99.6694L26.137 92.8023C33.3351 96.7368 41.4395 98.8112 49.6861 98.8143H49.7074C76.8667 98.8143 98.976 76.6562 98.9876 49.4256C98.9922 36.2287 93.8703 23.819 84.5666 14.4837C75.2618 5.14961 62.89 0.00542636 49.7074 0C22.5434 0 0.437205 22.155 0.426379 49.386ZM15.9844 72.7876L15.0089 71.2353C10.9084 64.6988 8.74413 57.1454 8.74723 49.3891C8.75573 26.7554 27.1295 8.34109 49.7228 8.34109C60.6642 8.34574 70.9467 12.6217 78.6807 20.3798C86.4143 28.1388 90.6698 38.4527 90.6671 49.4225C90.6571 72.0562 72.2829 90.4729 49.7074 90.4729H49.6911C42.3403 90.469 35.131 88.4899 28.8438 84.75L27.3475 83.8605L11.8448 87.9353L15.9844 72.7876Z" fill="url(#paint1_linear_22_110)"/>
<path d="M37.3903 28.7395C36.4678 26.6841 35.497 26.6426 34.6198 26.6066C33.9014 26.5756 33.0803 26.5779 32.2599 26.5779C31.4387 26.5779 30.1044 26.8876 28.9767 28.1221C27.8477 29.3578 24.6666 32.3438 24.6666 38.4171C24.6666 44.4903 29.0791 50.3601 29.6942 51.1845C30.3101 52.0074 38.2126 64.8694 50.7283 69.8175C61.13 73.9295 63.2467 73.1116 65.5042 72.9054C67.7621 72.7 72.7897 69.9202 73.8154 67.0376C74.8419 64.1554 74.8419 61.6849 74.5341 61.1686C74.2264 60.6543 73.4052 60.3454 72.1738 59.7283C70.9424 59.1113 64.8883 56.1244 63.7598 55.7124C62.6308 55.3008 61.81 55.0954 60.9889 56.3314C60.1677 57.5655 57.8097 60.3454 57.0909 61.1686C56.373 61.9938 55.6543 62.0965 54.4233 61.4791C53.1911 60.8597 49.2255 59.5578 44.5208 55.3527C40.8602 52.0806 38.3889 48.0399 37.6706 46.8039C36.9523 45.5698 37.5937 44.9008 38.2111 44.2857C38.7644 43.7326 39.4429 42.8442 40.0592 42.1237C40.6731 41.4027 40.878 40.8884 41.2886 40.0651C41.6996 39.2411 41.4939 38.5202 41.1865 37.9027C40.878 37.2853 38.4852 31.1802 37.3903 28.7395Z" fill="white"/>
<defs>
<linearGradient id="paint0_linear_22_110" x1="4779.06" y1="9623.63" x2="4779.06" y2="1.72559" gradientUnits="userSpaceOnUse">
<stop stop-color="#1FAF38"/>
<stop offset="1" stop-color="#60D669"/>
</linearGradient>
<linearGradient id="paint1_linear_22_110" x1="4948.76" y1="9966.94" x2="4948.76" y2="0" gradientUnits="userSpaceOnUse">
<stop stop-color="#F9F9F9"/>
<stop offset="1" stop-color="white"/>
</linearGradient>
</defs>
</svg>
