<svg width="93" height="98" viewBox="0 0 93 98" fill="none" xmlns="http://www.w3.org/2000/svg">
<g clip-path="url(#clip0_5_498)">
<g clip-path="url(#clip1_5_498)">
<g clip-path="url(#clip2_5_498)">
<path d="M27.9817 83.199L39.9351 11.0604C40.009 10.6143 39.7056 10.1903 39.2595 10.1164L26.5753 8.01458C26.1119 7.9378 25.672 8.25646 25.5945 8.72416L13.6475 80.8238L12.4869 80.6315L24.4339 8.53185C24.6176 7.42323 25.6676 6.67172 26.7719 6.85471L39.4518 8.95579C40.5388 9.1359 41.2758 10.1657 41.0957 11.2527L29.1423 83.3913L27.9817 83.199Z" fill="#8DA4A2"/>
<path d="M31.8479 84.3291L43.604 14.8586C43.6578 14.5338 43.5521 14.2048 43.3181 13.9792L40.0915 10.7615L40.9242 9.92505L44.1544 13.1478C44.655 13.6445 44.8837 14.3587 44.7682 15.0559L33.0121 84.5264L31.8515 84.3341L31.8479 84.3291Z" fill="#8DA4A2"/>
<path d="M30.0025 8.34558L24.8665 12.324L24.9874 12.4801L30.1235 8.50175L30.0025 8.34558Z" fill="#8DA4A2"/>
<path d="M34.1219 9.25635L23.9601 16.8726L24.0786 17.0307L34.2404 9.41442L34.1219 9.25635Z" fill="#8DA4A2"/>
<path d="M39.4693 10.4564L23.4913 21.1898L23.6063 21.361L39.5844 10.6277L39.4693 10.4564Z" fill="#8DA4A2"/>
<path d="M39.0618 15.6416L22.3728 26.1926L22.483 26.367L39.172 15.816L39.0618 15.6416Z" fill="#8DA4A2"/>
<path d="M38.2813 21.186L21.8611 30.6629L21.9598 30.834L38.38 21.3571L38.2813 21.186Z" fill="#8DA4A2"/>
<path d="M37.3579 26.7628L21.1039 34.9205L21.1925 35.097L37.4465 26.9394L37.3579 26.7628Z" fill="#8DA4A2"/>
<path d="M36.4914 32.4651L20.2059 40.7743L20.2957 40.9502L36.5812 32.6411L36.4914 32.4651Z" fill="#8DA4A2"/>
<path d="M19.1346 45.9637L35.8062 38.3412L35.8916 38.5244L19.2163 46.1419L19.1346 45.9637Z" fill="#8DA4A2"/>
<path d="M34.8907 43.4467L18.5095 51.1208L18.597 51.3076L34.9782 43.6336L34.8907 43.4467Z" fill="#8DA4A2"/>
<path d="M34.075 48.8309L17.7026 56.0252L17.7821 56.206L34.1545 49.0117L34.075 48.8309Z" fill="#8DA4A2"/>
<path d="M33.1491 53.951L16.7767 61.1454L16.8562 61.3262L33.2285 54.1319L33.1491 53.951Z" fill="#8DA4A2"/>
<path d="M31.9138 59.0891L15.9285 65.783L16.0048 65.9652L31.9901 59.2713L31.9138 59.0891Z" fill="#8DA4A2"/>
<path d="M31.4074 63.9531L15.0295 70.3555L15.1015 70.5395L31.4793 64.1371L31.4074 63.9531Z" fill="#8DA4A2"/>
<path d="M30.2369 68.2916L14.1921 74.509L14.2635 74.6932L30.3083 68.4758L30.2369 68.2916Z" fill="#8DA4A2"/>
<path d="M29.6381 73.6919L14.0001 79.3564L14.0674 79.5421L29.7054 73.8777L29.6381 73.6919Z" fill="#8DA4A2"/>
<path d="M28.9702 78.6102L19.4817 82.0471L19.549 82.2329L29.0374 78.7959L28.9702 78.6102Z" fill="#8DA4A2"/>
<path d="M34.8451 85.3063L43.7208 31.7415C43.8959 30.6848 44.8955 29.9694 45.9521 30.1445L58.7533 32.2657C59.8273 32.4436 60.5571 33.4634 60.3791 34.5374L51.6483 87.2274L50.4877 87.0351L59.2193 34.3407C59.291 33.9076 58.9984 33.4987 58.5653 33.427L45.7641 31.3058C45.3484 31.2369 44.9547 31.5187 44.8858 31.9345L36.01 85.4993L34.8451 85.3063Z" fill="#8DA4A2"/>
<path d="M54.3977 87.901L62.8292 38.4939C62.9168 37.9657 62.7431 37.4297 62.3682 37.0605L59.2818 34.0441L60.1022 33.201L63.1887 36.2176C63.8474 36.8607 64.1485 37.7827 63.9898 38.6863L55.5583 88.0933L54.3977 87.901Z" fill="#8DA4A2"/>
<path d="M57.4637 88.409L64.2606 47.3899C64.4479 46.2596 65.5181 45.4937 66.6484 45.6809L78.7654 47.6887C80.1425 47.9169 81.0782 49.2244 80.85 50.6015L74.1292 91.1616L72.9685 90.9693L79.6894 50.4092C79.8114 49.673 79.3092 48.9713 78.573 48.8493L66.4561 46.8415C65.9667 46.7604 65.5023 47.0928 65.4212 47.5822L58.6243 88.6014L57.4637 88.409Z" fill="#8DA4A2"/>
<path d="M77.012 91.6482L83.3705 54.1338C83.4703 53.5318 83.2626 52.9323 82.8141 52.5243L79.795 49.7726L80.5887 48.903L83.6071 51.659C84.3539 52.3345 84.6954 53.3344 84.5217 54.329L78.1639 91.8391L77.0076 91.6475L77.012 91.6482Z" fill="#8DA4A2"/>
<path d="M64.7037 51.1341L69.8395 47.153L69.9602 47.3109L64.8244 51.292L64.7037 51.1341Z" fill="#8DA4A2"/>
<path d="M73.9667 48.0763L63.8049 55.6925L63.9234 55.8506L74.0852 48.2344L73.9667 48.0763Z" fill="#8DA4A2"/>
<path d="M79.3128 49.2817L63.3348 60.0151L63.4498 60.1863L79.4279 49.453L79.3128 49.2817Z" fill="#8DA4A2"/>
<path d="M62.2119 65.0174L78.9017 54.4656L79.0108 54.6394L62.3254 65.1919L62.2119 65.0174Z" fill="#8DA4A2"/>
<path d="M61.7124 69.4819L78.1304 60.0063L78.2308 60.1787L61.8078 69.658L61.7124 69.4819Z" fill="#8DA4A2"/>
<path d="M77.2028 65.5831L60.9489 73.7407L61.0375 73.9173L77.2914 65.7596L77.2028 65.5831Z" fill="#8DA4A2"/>
<path d="M60.0448 79.5996L76.3275 71.2897L76.4186 71.465L60.1359 79.7749L60.0448 79.5996Z" fill="#8DA4A2"/>
<path d="M75.6493 77.1573L58.9729 84.7788L59.0551 84.9585L75.7314 77.3371L75.6493 77.1573Z" fill="#8DA4A2"/>
<path d="M74.721 82.2693L60.6039 88.8886L60.6878 89.0675L74.8049 82.4481L74.721 82.2693Z" fill="#8DA4A2"/>
<path d="M19.5467 2.17791L18.3861 1.9856L5.47534 79.9012L6.63594 80.0935L19.5467 2.17791Z" fill="#8DA4A2"/>
<path d="M1.29066 80.0488C0.965869 79.995 0.752703 79.6971 0.806521 79.3724C0.86034 79.0476 1.15818 78.8344 1.48297 78.8882L81.2477 92.1054C81.5725 92.1592 81.7857 92.457 81.7319 92.7818C81.6781 93.1066 81.3802 93.3198 81.0554 93.2659L1.29066 80.0488Z" fill="#8DA4A2"/>
<path d="M81.0603 96.1901C80.7356 96.1363 80.5224 95.8384 80.5762 95.5136L81.5356 89.7236C81.5894 89.3989 81.8873 89.1857 82.2121 89.2395C82.5369 89.2933 82.7493 89.5955 82.6962 89.916L81.7368 95.7059C81.683 96.0307 81.3851 96.2439 81.0603 96.1901Z" fill="#8DA4A2"/>
<path d="M16.0954 1.81966C15.7706 1.76584 15.5575 1.468 15.6113 1.1432C15.6651 0.818408 15.963 0.605241 16.2877 0.65906L22.0777 1.61847C22.3982 1.67157 22.615 1.97446 22.5619 2.29492C22.5088 2.61539 22.2059 2.83216 21.8854 2.77906L16.0954 1.81966Z" fill="#8DA4A2"/>
<path d="M16.0989 7.00825C15.7741 6.95443 15.5609 6.65659 15.6147 6.3318C15.6685 6.00701 15.9664 5.79384 16.2912 5.84766L20.3966 6.52793C20.7213 6.58174 20.9345 6.87959 20.8807 7.20438C20.8269 7.52917 20.529 7.74234 20.2042 7.68852L16.0989 7.00825Z" fill="#8DA4A2"/>
<path d="M15.1049 13.0062C14.7801 12.9524 14.567 12.6545 14.6208 12.3297C14.6746 12.0049 14.9724 11.7918 15.2972 11.8456L19.4026 12.5258C19.7274 12.5797 19.9406 12.8775 19.8867 13.2023C19.8329 13.5271 19.5351 13.7403 19.2103 13.6864L15.1049 13.0062Z" fill="#8DA4A2"/>
<path d="M14.1112 19.0039C13.7907 18.9508 13.5739 18.6479 13.627 18.3275C13.6801 18.007 13.983 17.7902 14.3035 17.8433L18.4089 18.5236C18.7336 18.5774 18.9468 18.8752 18.893 19.2C18.8392 19.5248 18.5413 19.738 18.2165 19.6842L14.1112 19.0039Z" fill="#8DA4A2"/>
<path d="M13.1173 25.0018C12.7968 24.9487 12.5801 24.6459 12.6332 24.3254C12.6863 24.0049 12.9892 23.7882 13.3096 23.8413L17.415 24.5215C17.7398 24.5753 17.953 24.8732 17.8991 25.198C17.8453 25.5228 17.5475 25.7359 17.2227 25.6821L13.1173 25.0018Z" fill="#8DA4A2"/>
<path d="M12.1235 30.9997C11.803 30.9466 11.5862 30.6437 11.6393 30.3232C11.6924 30.0028 11.9953 29.786 12.3158 29.8391L16.4212 30.5194C16.7459 30.5732 16.9591 30.871 16.9053 31.1958C16.8515 31.5206 16.5536 31.7338 16.2288 31.68L12.1235 30.9997Z" fill="#8DA4A2"/>
<path d="M11.1296 36.9975C10.8048 36.9437 10.5917 36.6459 10.6455 36.3211C10.6993 35.9963 11.0015 35.7838 11.3219 35.8369L15.4273 36.5172C15.7521 36.571 15.9653 36.8689 15.9114 37.1937C15.8576 37.5184 15.5598 37.7316 15.235 37.6778L11.1296 36.9975Z" fill="#8DA4A2"/>
<path d="M10.135 42.9997C9.81463 42.9466 9.59785 42.6437 9.65095 42.3232C9.70405 42.0028 10.0026 41.7853 10.3274 41.8391L14.4327 42.5194C14.7575 42.5732 14.9707 42.871 14.9169 43.1958C14.8631 43.5206 14.5652 43.7338 14.2404 43.68L10.135 42.9997Z" fill="#8DA4A2"/>
<path d="M9.14125 48.9975C8.81646 48.9437 8.60329 48.6459 8.65711 48.3211C8.71093 47.9963 9.00877 47.7831 9.33356 47.8369L13.439 48.5172C13.7638 48.571 13.9769 48.8689 13.9231 49.1937C13.8693 49.5185 13.5715 49.7316 13.2467 49.6778L9.14125 48.9975Z" fill="#8DA4A2"/>
<path d="M8.14735 54.9953C7.82256 54.9414 7.60939 54.6436 7.66321 54.3188C7.71703 53.994 8.01487 53.7809 8.33966 53.8347L12.445 54.5149C12.7698 54.5688 12.983 54.8666 12.9292 55.1914C12.8754 55.5162 12.5775 55.7294 12.2527 55.6755L8.14735 54.9953Z" fill="#8DA4A2"/>
<path d="M7.15345 60.9932C6.82866 60.9394 6.61549 60.6415 6.66931 60.3168C6.72313 59.992 7.0253 59.7795 7.34576 59.8326L11.4512 60.5129C11.776 60.5667 11.9891 60.8645 11.9353 61.1893C11.8815 61.5141 11.5837 61.7273 11.2589 61.6735L7.15345 60.9932Z" fill="#8DA4A2"/>
<path d="M6.15962 66.991C5.83916 66.9379 5.62238 66.6351 5.67548 66.3146C5.72858 65.9941 6.03147 65.7774 6.35193 65.8305L10.4573 66.5107C10.7821 66.5645 10.9953 66.8624 10.9415 67.1872C10.8877 67.512 10.5898 67.7251 10.265 67.6713L6.15962 66.991Z" fill="#8DA4A2"/>
<path d="M5.16646 72.9846C4.84599 72.9315 4.62921 72.6286 4.68232 72.3081C4.73542 71.9876 5.03398 71.7701 5.35877 71.824L9.46415 72.5042C9.78894 72.558 10.0022 72.8559 9.94829 73.1807C9.89447 73.5055 9.59663 73.7186 9.27184 73.6648L5.16646 72.9846Z" fill="#8DA4A2"/>
<path d="M77.1838 97.0294C76.8633 96.9763 76.6466 96.6734 76.6997 96.3529L77.3799 92.2475C77.433 91.9271 77.7359 91.7103 78.0564 91.7634C78.3768 91.8165 78.5936 92.1194 78.5405 92.4399L77.8603 96.5452C77.8072 96.8657 77.5043 97.0825 77.1838 97.0294Z" fill="#8DA4A2"/>
<path d="M71.2683 96.0492C70.9435 95.9953 70.7303 95.6975 70.7841 95.3727L71.4644 91.2673C71.5182 90.9425 71.816 90.7294 72.1408 90.7832C72.4656 90.837 72.6788 91.1348 72.625 91.4596L71.9447 95.565C71.8909 95.8898 71.593 96.103 71.2683 96.0492Z" fill="#8DA4A2"/>
<path d="M65.344 95.0675C65.0192 95.0137 64.8061 94.7159 64.8599 94.3911L65.5402 90.2857C65.594 89.9609 65.8918 89.7477 66.2166 89.8015C66.5414 89.8554 66.7546 90.1532 66.7008 90.478L66.0205 94.5834C65.9667 94.9082 65.6688 95.1213 65.344 95.0675Z" fill="#8DA4A2"/>
<path d="M59.424 94.0866C59.1036 94.0335 58.8868 93.7306 58.9399 93.4101L59.6202 89.3047C59.6733 88.9843 59.9762 88.7675 60.2966 88.8206C60.6171 88.8737 60.8346 89.1723 60.7808 89.497L60.1005 93.6024C60.0467 93.9272 59.7488 94.1404 59.424 94.0866Z" fill="#8DA4A2"/>
<path d="M53.5042 93.1056C53.1837 93.0525 52.9669 92.7496 53.02 92.4292L53.7003 88.3238C53.7534 88.0033 54.0563 87.7866 54.3767 87.8397C54.6972 87.8928 54.914 88.1957 54.8609 88.5161L54.1806 92.6215C54.1275 92.942 53.8246 93.1587 53.5042 93.1056Z" fill="#8DA4A2"/>
<path d="M47.5799 92.124C47.2595 92.0709 47.0427 91.768 47.0958 91.4475L47.7761 87.3422C47.8292 87.0217 48.1321 86.8049 48.4525 86.858C48.773 86.9111 48.9898 87.214 48.9367 87.5345L48.2564 91.6398C48.2033 91.9603 47.9004 92.1771 47.5799 92.124Z" fill="#8DA4A2"/>
<path d="M41.66 91.1431C41.3353 91.0892 41.1221 90.7914 41.1759 90.4666L41.8562 86.3612C41.91 86.0364 42.2078 85.8233 42.5326 85.8771C42.8574 85.9309 43.0706 86.2287 43.0168 86.5535L42.3365 90.6589C42.2827 90.9837 41.9848 91.1969 41.66 91.1431Z" fill="#8DA4A2"/>
<path d="M35.7402 90.1621C35.4197 90.109 35.2029 89.8061 35.256 89.4857L35.9363 85.3803C35.9894 85.0598 36.2923 84.843 36.6127 84.8961C36.9332 84.9492 37.1507 85.2478 37.0969 85.5726L36.4166 89.678C36.3628 90.0028 36.0649 90.2159 35.7402 90.1621Z" fill="#8DA4A2"/>
<path d="M29.8203 89.1812C29.4955 89.1274 29.2823 88.8295 29.3361 88.5047L30.0164 84.3993C30.0702 84.0746 30.3681 83.8614 30.6928 83.9152C31.0176 83.969 31.2308 84.2669 31.177 84.5917L30.4967 88.697C30.4429 89.0218 30.1451 89.235 29.8203 89.1812Z" fill="#8DA4A2"/>
<path d="M23.896 88.1994C23.5756 88.1463 23.3588 87.8434 23.4119 87.523L24.0922 83.4176C24.1453 83.0971 24.4482 82.8804 24.7686 82.9335C25.0891 82.9866 25.3066 83.2851 25.2528 83.6099L24.5725 87.7153C24.5187 88.0401 24.2208 88.2533 23.896 88.1994Z" fill="#8DA4A2"/>
<path d="M17.9761 87.2186C17.6513 87.1648 17.4381 86.8669 17.4919 86.5421L18.1722 82.4368C18.226 82.112 18.5238 81.8988 18.8486 81.9526C19.1734 82.0064 19.3859 82.3086 19.3328 82.6291L18.6525 86.7345C18.5994 87.0549 18.2965 87.2717 17.9761 87.2186Z" fill="#8DA4A2"/>
<path d="M12.0476 86.2362C11.7271 86.1831 11.5104 85.8802 11.5635 85.5598L12.2437 81.4544C12.2968 81.1339 12.5997 80.9172 12.9202 80.9703C13.2407 81.0234 13.4574 81.3262 13.4043 81.6467L12.7241 85.7521C12.671 86.0725 12.3681 86.2893 12.0476 86.2362Z" fill="#8DA4A2"/>
<path d="M80.5963 46.3325C80.5313 46.3217 80.4721 46.303 80.423 46.2771C80.2794 46.2043 80.1797 46.081 80.1326 45.9353C80.0863 45.7852 80.0999 45.6228 80.1719 45.4835L84.5783 37.0967C84.695 36.8757 84.9518 36.7492 85.1987 36.7901C85.2593 36.8002 85.3185 36.8189 85.3712 36.8499C85.5105 36.9219 85.611 37.0409 85.6573 37.1909C85.7036 37.341 85.6901 37.5034 85.618 37.6427L81.2116 46.0295C81.0942 46.2548 80.8468 46.3784 80.5956 46.3368L80.5963 46.3325Z" fill="#8DA4A2"/>
<path d="M84.0705 48.7547C83.9233 48.7303 83.7897 48.6503 83.7023 48.5335C83.6033 48.4058 83.562 48.2522 83.5828 48.0999C83.6043 47.9433 83.685 47.8054 83.8076 47.71C85.6912 46.2779 87.4729 44.6821 89.1101 42.9645C89.2449 42.8222 89.4383 42.7563 89.6332 42.7886C89.7501 42.808 89.8569 42.8613 89.9458 42.9428C90.1805 43.1641 90.1895 43.5393 89.9632 43.7777C88.2928 45.5343 86.4642 47.1713 84.5243 48.6475C84.3924 48.7457 84.23 48.7856 84.0741 48.7597L84.0698 48.759L84.0705 48.7547Z" fill="#8DA4A2"/>
<path d="M86.761 53.5165C86.5358 53.4792 86.3502 53.3105 86.285 53.0861C86.243 52.9368 86.2644 52.7801 86.3408 52.6415C86.4171 52.5029 86.5492 52.4046 86.7029 52.3633L92.0438 50.9035C92.1275 50.8817 92.2126 50.8781 92.2949 50.8917C92.5201 50.929 92.7058 51.0977 92.7666 51.3214C92.8079 51.475 92.7907 51.6324 92.7107 51.7659C92.6343 51.9046 92.5023 52.0028 92.3487 52.0441L87.0077 53.504C86.924 53.5257 86.8432 53.5301 86.7565 53.5158L86.761 53.5165Z" fill="#8DA4A2"/>
<path d="M73.2432 37.6744C73.1999 37.6673 73.1566 37.6601 73.1155 37.6399C72.961 37.5787 72.8418 37.4655 72.7738 37.3119C72.7058 37.1582 72.7028 36.9887 72.764 36.8342C75.2937 30.3211 73.6029 24.172 68.5568 21.5428C67.0247 20.7461 65.3933 20.1999 63.713 19.9214C60.1187 19.3258 56.6367 20.0392 54.1574 21.8709C54.0247 21.9735 53.8486 22.0156 53.6841 21.9883C53.5974 21.9739 53.518 21.943 53.4458 21.8954C53.2292 21.7527 53.1265 21.4865 53.1861 21.2339C54.4514 16.0953 52.2008 10.1828 47.7112 6.85372C45.7939 5.4281 43.4368 4.45465 40.8991 4.03414C37.6165 3.49022 34.285 3.91262 31.518 5.22502C31.4019 5.28141 31.2742 5.3003 31.1486 5.27949C30.9494 5.24648 30.7753 5.1153 30.69 4.93208C30.6177 4.77772 30.606 4.6067 30.6629 4.45149C30.7197 4.29628 30.8329 4.1771 30.9786 4.10336C34.019 2.67164 37.6073 2.2028 41.0978 2.78117C43.813 3.2311 46.36 4.29386 48.4644 5.85281C52.7872 9.06081 55.1952 14.2652 54.7475 19.437L54.6947 20.0512L55.2509 19.7829C57.7647 18.5754 60.858 18.1936 63.9587 18.7074C65.7646 19.0066 67.5057 19.5888 69.1396 20.4424C74.6896 23.3332 76.6569 30.2577 73.9263 37.2848C73.819 37.5563 73.5341 37.7182 73.2439 37.6701L73.2432 37.6744Z" fill="#8DA4A2"/>
<path d="M72.9448 38.8042C72.4871 38.6394 72.2847 38.2499 72.2008 38.0847L69.9454 33.92C69.782 33.6171 69.8935 33.2395 70.1921 33.0755C70.314 33.0111 70.4511 32.9893 70.5897 33.0123C70.7802 33.0439 70.9434 33.1599 71.0359 33.3265L73.3297 37.5554L77.0516 34.0786C77.1936 33.9464 77.3855 33.8892 77.5804 33.9215C77.719 33.9445 77.8374 34.0086 77.932 34.1088C78.1625 34.3561 78.1499 34.7545 77.9018 34.9892L74.3068 38.3447C73.8959 38.7304 73.4948 38.8953 73.1137 38.8322L72.9448 38.8042Z" fill="#8DA4A2"/>
</g>
</g>
</g>
<defs>
<clipPath id="clip0_5_498">
<rect width="93" height="97" fill="white" transform="translate(0 0.330078)"/>
</clipPath>
<clipPath id="clip1_5_498">
<rect width="93" height="97" fill="white" transform="translate(0 0.330078)"/>
</clipPath>
<clipPath id="clip2_5_498">
<rect width="93" height="97" fill="white" transform="translate(0 0.330078)"/>
</clipPath>
</defs>
</svg>
