<svg width="215" height="159" viewBox="0 0 215 159" fill="none" xmlns="http://www.w3.org/2000/svg">
<g clip-path="url(#clip0_2007_474)">
<g clip-path="url(#clip1_2007_474)">
<g clip-path="url(#clip2_2007_474)">
<path d="M58.2044 46.6281C39.7376 50.8531 20.4931 52.7246 19.4389 48.1169C18.3847 43.5092 36.5284 36.8265 54.9952 32.6015C73.462 28.3764 92.7065 26.5049 93.7608 31.1126C94.815 35.7203 76.6712 42.403 58.2044 46.6281ZM55.3594 34.1932C33.9365 39.0946 23.1402 44.5874 21.3782 46.9049L20.6623 47.8496L21.7178 48.389C24.3241 49.707 36.4348 49.9589 57.8457 45.0602C79.2566 40.1616 90.0621 34.6541 91.8269 32.3485L92.5427 31.4039L91.4873 30.8645C88.881 29.5464 76.7823 29.2918 55.3594 34.1932Z" fill="#8DA4A2"/>
<path d="M61.9667 63.0722C43.4999 67.2973 24.2554 69.1688 23.2012 64.5611L19.5676 48.6794C19.469 48.2486 19.7459 47.8074 20.1767 47.7088C20.6076 47.6102 21.0488 47.8871 21.1473 48.318L24.8193 64.3672L25.095 64.5812C27.2801 66.2601 40.0627 66.4212 61.6053 61.4924C83.1478 56.5637 94.5914 50.8724 95.8264 48.3984L95.9816 48.0858L92.3535 32.228C92.2549 31.7972 92.5318 31.356 92.9626 31.2574C93.3935 31.1588 93.8347 31.4357 93.9333 31.8666L97.5231 47.5568C98.5773 52.1645 80.4335 58.8472 61.9667 63.0722Z" fill="#8DA4A2"/>
<path d="M28.6142 50.6776L26.8669 51.0774L30.2623 65.9179L32.0096 65.5181L28.6142 50.6776Z" fill="#8DA4A2"/>
<path d="M37.4446 50.2441L35.6973 50.6439L39.2761 66.2862L41.0235 65.8864L37.4446 50.2441Z" fill="#8DA4A2"/>
<path d="M48.1292 48.3916L46.3819 48.7914L50.0264 64.7209L51.7738 64.3212L48.1292 48.3916Z" fill="#8DA4A2"/>
<path d="M58.2612 46.7662L56.5139 47.166L60.0927 62.8083L61.84 62.4085L58.2612 46.7662Z" fill="#8DA4A2"/>
<path d="M67.5552 44.4509L65.8079 44.8507L69.4306 60.6844L71.1779 60.2847L67.5552 44.4509Z" fill="#8DA4A2"/>
<path d="M75.3894 41.865L73.642 42.2648L77.1579 57.6318L78.9053 57.2321L75.3894 41.865Z" fill="#8DA4A2"/>
<path d="M84.0733 39.0848L82.3259 39.4845L85.7104 54.2771L87.4577 53.8773L84.0733 39.0848Z" fill="#8DA4A2"/>
<path d="M89.132 36.0382L87.3846 36.438L90.9197 51.8888L92.667 51.489L89.132 36.0382Z" fill="#8DA4A2"/>
<path d="M63.4015 69.3435C44.9707 73.5604 25.7795 75.4448 24.7389 70.897C24.4268 69.5326 25.6572 68.0294 28.5122 66.3057L29.2166 67.5677C27.5914 68.5567 26.8263 69.2859 26.4776 69.7435L25.7894 70.644L26.773 71.1999C29.244 72.5867 41.2726 72.9203 63.0784 67.9313C84.8843 62.9423 95.5684 57.3995 97.1933 55.0882L97.8373 54.16L96.826 53.6483C96.313 53.3878 95.3189 53.0611 93.4282 52.8892L93.5137 51.4464C96.8195 51.748 98.5811 52.5666 98.8933 53.931C99.9338 58.4789 81.8204 65.1294 63.4015 69.3435Z" fill="#8DA4A2"/>
<path d="M67.183 85.8714C48.7162 90.0964 29.4717 91.9679 28.4175 87.3602L24.7839 71.4785C24.6853 71.0477 24.9622 70.6065 25.393 70.5079C25.8239 70.4093 26.2651 70.6862 26.3636 71.1171L30.0356 87.1663L30.3113 87.3803C32.4964 89.0592 45.279 89.2204 66.8216 84.2916C88.3641 79.3628 99.8077 73.6715 101.043 71.1975L101.198 70.8849L97.5698 55.0272C97.4712 54.5963 97.7481 54.1551 98.1789 54.0565C98.6098 53.958 99.051 54.2349 99.1496 54.6657L102.739 70.3559C103.794 74.9636 85.6498 81.6463 67.183 85.8714Z" fill="#8DA4A2"/>
<path d="M33.8333 73.4888L32.0859 73.8886L35.4813 88.7291L37.2287 88.3293L33.8333 73.4888Z" fill="#8DA4A2"/>
<path d="M42.6637 73.0554L40.9163 73.4552L44.4952 89.0975L46.2425 88.6977L42.6637 73.0554Z" fill="#8DA4A2"/>
<path d="M53.3482 71.2028L51.6009 71.6026L55.2455 87.5321L56.9928 87.1324L53.3482 71.2028Z" fill="#8DA4A2"/>
<path d="M63.4802 69.5774L61.7329 69.9772L65.3117 85.6195L67.0591 85.2197L63.4802 69.5774Z" fill="#8DA4A2"/>
<path d="M72.7715 67.2501L71.0242 67.6499L74.6468 83.4837L76.3942 83.0839L72.7715 67.2501Z" fill="#8DA4A2"/>
<path d="M80.6057 64.6642L78.8583 65.064L82.3742 80.4311L84.1216 80.0313L80.6057 64.6642Z" fill="#8DA4A2"/>
<path d="M89.2896 61.884L87.5422 62.2838L90.9267 77.0763L92.674 76.6766L89.2896 61.884Z" fill="#8DA4A2"/>
<path d="M94.351 58.8494L92.6037 59.2491L96.1387 74.7L97.886 74.3002L94.351 58.8494Z" fill="#8DA4A2"/>
<path d="M58.711 94.4219C40.2801 98.6388 21.0889 100.523 20.0484 95.9754C19.6952 94.4315 21.3171 92.7128 25.0146 90.7081L29.8471 88.5446C29.8471 88.5446 29.9401 88.5107 29.976 88.5025C30.3111 88.4258 30.6531 88.5994 30.7989 88.9062C30.8759 89.0775 30.8838 89.2772 30.8116 89.4574C30.7395 89.6376 30.6086 89.7809 30.4253 89.8606L25.707 91.9729C23.2318 93.3201 22.2123 94.2586 21.7843 94.81L21.0961 95.7105L22.0797 96.2663C24.5507 97.6531 36.5793 97.9868 58.3851 92.9977C78.9344 88.2962 89.6114 83.1078 92.1191 80.5819L92.1438 80.6896L92.1164 80.5699C92.2713 80.4211 92.3903 80.2805 92.4853 80.1455L93.1293 79.2172L92.118 78.7055C91.8616 78.5753 91.5185 78.4523 91.1277 78.3402C90.9409 78.2947 90.7857 78.1665 90.6847 78.0007C90.5958 77.8321 90.564 77.6379 90.6094 77.4512C90.6771 77.1964 90.8836 76.998 91.1469 76.9378C91.2665 76.9104 91.3797 76.9097 91.5011 76.9449C93.0712 77.3665 93.9717 78.0547 94.1853 78.9882C95.2258 83.5361 77.1124 90.1866 58.6935 94.4008L58.711 94.4219Z" fill="#8DA4A2"/>
<path d="M62.4925 110.95C44.0257 115.175 24.7811 117.046 23.7269 112.439L20.0933 96.5571C19.9947 96.1262 20.2716 95.685 20.7025 95.5865C21.1333 95.4879 21.5745 95.7648 21.6731 96.1956L25.345 112.245L25.6207 112.459C27.8059 114.138 40.5884 114.299 62.131 109.37C83.6736 104.441 95.1172 98.75 96.3522 96.276L96.5073 95.9634L92.8792 80.1057C92.7806 79.6748 93.0575 79.2337 93.4884 79.1351C93.9192 79.0365 94.3604 79.3134 94.459 79.7443L98.0488 95.4344C99.1003 100.03 80.9592 106.725 62.4925 110.95Z" fill="#8DA4A2"/>
<path d="M29.14 98.5553L27.3926 98.9551L30.788 113.796L32.5354 113.396L29.14 98.5553Z" fill="#8DA4A2"/>
<path d="M37.9704 98.1219L36.223 98.5217L39.8019 114.164L41.5492 113.764L37.9704 98.1219Z" fill="#8DA4A2"/>
<path d="M48.643 96.272L46.8956 96.6718L50.5402 112.601L52.2875 112.202L48.643 96.272Z" fill="#8DA4A2"/>
<path d="M58.7897 94.6558L57.0423 95.0556L60.6212 110.698L62.3685 110.298L58.7897 94.6558Z" fill="#8DA4A2"/>
<path d="M68.081 92.3285L66.3336 92.7283L69.9563 108.562L71.7036 108.162L68.081 92.3285Z" fill="#8DA4A2"/>
<path d="M75.9151 89.7427L74.1678 90.1425L77.6837 105.51L79.431 105.11L75.9151 89.7427Z" fill="#8DA4A2"/>
<path d="M84.599 86.9624L82.8517 87.3622L86.2361 102.155L87.9835 101.755L84.599 86.9624Z" fill="#8DA4A2"/>
<path d="M89.6577 83.9158L87.9104 84.3156L91.4454 99.7664L93.1927 99.3667L89.6577 83.9158Z" fill="#8DA4A2"/>
<path d="M73.8369 114.954C55.406 119.171 36.2148 121.055 35.1743 116.507C34.9908 115.706 35.3569 114.828 36.2567 113.917L37.1693 115.043C37.078 115.14 36.9895 115.248 36.9221 115.339L36.234 116.24L37.2176 116.796C39.6766 118.185 51.7171 118.516 73.523 113.527C95.3289 108.538 106.013 102.995 107.638 100.684L108.282 99.7557L107.271 99.244C106.687 98.9494 105.465 98.5615 102.987 98.4105L97.9725 98.3486L97.9954 96.9076L103.046 96.9613C106.928 97.194 109.01 98.0399 109.35 99.524C110.39 104.072 92.277 110.722 73.8581 114.936L73.8369 114.954Z" fill="#8DA4A2"/>
<path d="M77.6183 131.482C59.1516 135.707 39.907 137.578 38.8528 132.971L35.2192 117.089C35.1206 116.658 35.3975 116.217 35.8284 116.118C36.2592 116.02 36.7004 116.297 36.799 116.728L40.4709 132.777L40.7466 132.991C42.9317 134.67 55.7143 134.831 77.2569 129.902C98.7995 124.973 110.243 119.282 111.478 116.808L111.633 116.495L108.005 100.638C107.907 100.207 108.183 99.7655 108.614 99.667C109.045 99.5684 109.486 99.8453 109.585 100.276L113.175 115.966C114.226 120.562 96.0851 127.257 77.6183 131.482Z" fill="#8DA4A2"/>
<path d="M44.2686 119.099L42.5213 119.499L45.9167 134.339L47.664 133.94L44.2686 119.099Z" fill="#8DA4A2"/>
<path d="M53.099 118.666L51.3517 119.066L54.9305 134.708L56.6779 134.308L53.099 118.666Z" fill="#8DA4A2"/>
<path d="M63.7836 116.813L62.0362 117.213L65.6808 133.143L67.4281 132.743L63.7836 116.813Z" fill="#8DA4A2"/>
<path d="M73.9156 115.188L72.1682 115.588L75.7471 131.23L77.4944 130.83L73.9156 115.188Z" fill="#8DA4A2"/>
<path d="M83.2069 112.861L81.4595 113.26L85.0822 129.094L86.8295 128.694L83.2069 112.861Z" fill="#8DA4A2"/>
<path d="M91.041 110.275L89.2937 110.674L92.8095 126.041L94.5569 125.642L91.041 110.275Z" fill="#8DA4A2"/>
<path d="M99.7249 107.494L97.9776 107.894L101.362 122.687L103.109 122.287L99.7249 107.494Z" fill="#8DA4A2"/>
<path d="M104.786 104.46L103.039 104.86L106.574 120.31L108.321 119.911L104.786 104.46Z" fill="#8DA4A2"/>
<path d="M79.1435 138.148C60.7127 142.365 41.5214 144.249 40.4837 139.714C40.2619 138.744 40.5317 137.171 45.1247 134.621L45.7959 135.904C43.6063 137.123 42.6384 138.011 42.2223 138.56L41.5341 139.461L42.5177 140.016C44.9887 141.403 57.0173 141.737 78.8232 136.748C100.629 131.759 111.313 126.216 112.938 123.905L113.582 122.977L112.571 122.465C111.928 122.133 110.605 121.743 107.891 121.609L107.926 120.165C113.452 120.425 114.411 121.754 114.638 122.748C115.679 127.295 97.5624 133.934 79.1435 138.148Z" fill="#8DA4A2"/>
<path d="M82.925 154.676C64.4582 158.901 45.2137 160.773 44.1595 156.165L40.5258 140.283C40.4273 139.852 40.7042 139.411 41.135 139.313C41.5659 139.214 42.0071 139.491 42.1056 139.922L45.7776 155.971L46.0532 156.185C48.2384 157.864 61.021 158.025 82.5636 153.096C104.106 148.167 115.55 142.476 116.785 140.002L116.94 139.69L113.312 123.832C113.213 123.401 113.49 122.96 113.921 122.861C114.352 122.763 114.793 123.04 114.892 123.47L118.481 139.161C119.533 143.756 101.392 150.451 82.925 154.676Z" fill="#8DA4A2"/>
<path d="M49.5753 142.293L47.8279 142.693L51.2233 157.534L52.9707 157.134L49.5753 142.293Z" fill="#8DA4A2"/>
<path d="M58.4057 141.86L56.6583 142.26L60.2372 157.902L61.9845 157.502L58.4057 141.86Z" fill="#8DA4A2"/>
<path d="M69.0902 140.007L67.3429 140.407L70.9874 156.337L72.7348 155.937L69.0902 140.007Z" fill="#8DA4A2"/>
<path d="M79.2222 138.382L77.4749 138.782L81.0537 154.424L82.8011 154.024L79.2222 138.382Z" fill="#8DA4A2"/>
<path d="M88.5135 136.055L86.7662 136.454L90.3888 152.288L92.1362 151.888L88.5135 136.055Z" fill="#8DA4A2"/>
<path d="M96.3477 133.469L94.6003 133.869L98.1162 149.236L99.8635 148.836L96.3477 133.469Z" fill="#8DA4A2"/>
<path d="M105.032 130.689L103.284 131.088L106.669 145.881L108.416 145.481L105.032 130.689Z" fill="#8DA4A2"/>
<path d="M110.093 127.654L108.346 128.054L111.881 143.505L113.628 143.105L110.093 127.654Z" fill="#8DA4A2"/>
<path d="M156.311 96.5883C137.844 100.813 118.6 102.685 117.545 98.0771C116.491 93.4694 134.635 86.7867 153.102 82.5617C171.568 78.3366 190.813 76.4651 191.867 81.0728C192.921 85.6805 174.778 92.3632 156.311 96.5883ZM153.466 84.1534C132.043 89.0548 121.249 94.5596 119.485 96.8651L118.769 97.8098L119.824 98.3492C122.431 99.6672 134.529 99.9219 155.952 95.0205C177.375 90.1191 188.171 84.6262 189.933 82.3087L190.649 81.3641L189.594 80.8247C186.987 79.5066 174.877 79.2548 153.466 84.1534Z" fill="#8DA4A2"/>
<path d="M160.073 113.032C141.606 117.258 122.362 119.129 121.308 114.521L117.674 98.6396C117.575 98.2088 117.852 97.7675 118.283 97.6689C118.714 97.5703 119.155 97.8472 119.254 98.2781L122.926 114.327L123.201 114.541C125.387 116.22 138.169 116.381 159.712 111.453C181.254 106.524 192.698 100.833 193.933 98.3585L194.088 98.0459L190.46 82.1883C190.361 81.7574 190.638 81.3161 191.069 81.2175C191.5 81.119 191.941 81.3959 192.04 81.8267L195.63 97.5169C196.681 102.113 178.54 108.807 160.073 113.032Z" fill="#8DA4A2"/>
<path d="M126.222 101.76L125.922 101.828L128.88 114.754L129.179 114.685L126.222 101.76Z" fill="#8DA4A2"/>
<path d="M135.04 101.329L134.741 101.397L137.882 115.125L138.181 115.056L135.04 101.329Z" fill="#8DA4A2"/>
<path d="M145.725 99.4763L145.425 99.5448L148.632 113.559L148.931 113.491L145.725 99.4763Z" fill="#8DA4A2"/>
<path d="M155.871 97.8601L155.572 97.9286L158.713 111.656L159.012 111.588L155.871 97.8601Z" fill="#8DA4A2"/>
<path d="M165.163 95.5328L164.863 95.6013L168.048 109.52L168.347 109.452L165.163 95.5328Z" fill="#8DA4A2"/>
<path d="M172.997 92.947L172.698 93.0154L175.775 106.468L176.075 106.399L172.997 92.947Z" fill="#8DA4A2"/>
<path d="M181.681 90.1667L181.381 90.2352L184.328 103.113L184.627 103.044L181.681 90.1667Z" fill="#8DA4A2"/>
<path d="M186.739 87.1201L186.44 87.1886L189.537 100.724L189.836 100.656L186.739 87.1201Z" fill="#8DA4A2"/>
<path d="M161.508 119.304C143.077 123.521 123.886 125.405 122.848 120.869C122.536 119.505 123.766 118.002 126.621 116.278L127.326 117.54C125.689 118.532 124.935 119.258 124.584 119.704L123.896 120.604L124.879 121.16C127.338 122.55 139.379 122.881 161.185 117.891C182.991 112.902 193.675 107.36 195.3 105.048L195.944 104.12L194.932 103.609C194.419 103.348 193.425 103.021 191.535 102.849L191.62 101.407C194.926 101.708 196.688 102.527 197 103.891C198.04 108.439 179.924 115.078 161.505 119.292L161.508 119.304Z" fill="#8DA4A2"/>
<path d="M165.289 135.832C146.823 140.057 127.578 141.928 126.524 137.321L122.89 121.439C122.792 121.008 123.069 120.567 123.499 120.468C123.93 120.37 124.372 120.647 124.47 121.077L128.142 137.127L128.418 137.341C130.603 139.02 143.385 139.181 164.928 134.252C186.471 129.323 197.914 123.632 199.149 121.158L199.304 120.845L195.676 104.987C195.578 104.557 195.855 104.115 196.285 104.017C196.716 103.918 197.157 104.195 197.256 104.626L200.846 120.316C201.897 124.912 183.756 131.607 165.289 135.832Z" fill="#8DA4A2"/>
<path d="M131.441 124.571L131.141 124.639L134.099 137.565L134.398 137.496L131.441 124.571Z" fill="#8DA4A2"/>
<path d="M140.259 124.14L139.96 124.209L143.101 137.936L143.4 137.868L140.259 124.14Z" fill="#8DA4A2"/>
<path d="M150.944 122.288L150.644 122.356L153.851 136.371L154.15 136.302L150.944 122.288Z" fill="#8DA4A2"/>
<path d="M161.088 120.659L160.788 120.728L163.929 134.455L164.228 134.387L161.088 120.659Z" fill="#8DA4A2"/>
<path d="M170.379 118.332L170.08 118.401L173.264 132.319L173.563 132.251L170.379 118.332Z" fill="#8DA4A2"/>
<path d="M178.213 115.746L177.914 115.815L180.992 129.267L181.291 129.198L178.213 115.746Z" fill="#8DA4A2"/>
<path d="M186.897 112.966L186.598 113.034L189.544 125.912L189.843 125.844L186.897 112.966Z" fill="#8DA4A2"/>
<path d="M191.958 109.931L191.659 110L194.756 123.536L195.055 123.467L191.958 109.931Z" fill="#8DA4A2"/>
<path d="M150.337 70.2594C131.212 74.635 112.094 62.6362 107.718 43.5112C103.343 24.3861 115.342 5.26798 134.467 0.892319C153.592 -3.48335 172.71 8.5155 177.086 27.6405C181.461 46.7655 169.462 65.8837 150.337 70.2594ZM134.825 2.46014C116.574 6.63591 105.108 24.8891 109.284 43.1405C113.459 61.3918 131.71 72.8461 149.973 68.6676C168.237 64.4891 179.679 46.2413 175.503 27.99C171.327 9.73865 153.077 -1.71564 134.825 2.46014Z" fill="#8DA4A2"/>
<path d="M148.519 62.3127C133.775 65.6861 119.027 56.4405 115.651 41.6839C112.274 26.9272 121.523 12.1915 136.279 8.81523C151.036 5.43901 165.772 14.6874 169.148 29.4441C172.524 44.2007 163.276 58.9364 148.519 62.3127ZM136.682 10.5746C122.895 13.729 114.246 27.5088 117.401 41.2961C120.555 55.0833 134.335 63.7317 148.122 60.5773C161.909 57.4229 170.558 43.643 167.403 29.8558C164.249 16.0685 150.469 7.42012 136.682 10.5746Z" fill="#8DA4A2"/>
<path d="M147.2 50.108C143.263 51.0088 138.971 50.4164 136.018 48.5732C135.68 48.3609 135.578 47.9181 135.791 47.5798C135.892 47.4181 136.055 47.3052 136.247 47.2614C136.438 47.2176 136.622 47.251 136.784 47.3526C139.428 49.002 143.302 49.5264 146.892 48.705C147.682 48.5242 148.446 48.2864 149.158 47.985C151.585 46.9764 153.581 45.1342 154.356 43.181C154.78 42.1144 154.803 41.1141 154.395 40.2125C153.617 38.4635 151.338 37.146 147.968 36.5066C146.742 36.2706 145.503 36.1385 144.198 35.9962C142.415 35.7996 140.606 35.5965 138.905 35.1543C135.196 34.1894 132.783 32.1217 132.473 29.6108C132.108 26.6966 134.618 24.0695 137.263 22.7466C138.268 22.2396 139.434 21.8341 140.619 21.563C142.881 21.0455 147.295 20.5771 151.361 23.2617C151.522 23.3632 151.635 23.5263 151.667 23.7205C151.711 23.912 151.665 24.0988 151.564 24.2605C151.46 24.4103 151.309 24.5205 151.117 24.5643C150.926 24.6081 150.73 24.5774 150.565 24.4639C146.959 22.0774 142.965 22.5125 140.906 22.9835C139.53 23.2984 138.521 23.7308 137.91 24.0343C135.32 25.3196 133.673 27.5352 133.915 29.4193C134.155 31.2915 136.209 32.9499 139.288 33.7443C140.908 34.167 142.587 34.3496 144.37 34.5462C145.648 34.682 146.968 34.8336 148.258 35.0799C152.101 35.8003 154.761 37.4083 155.744 39.6141C156.294 40.8611 156.292 42.2847 155.725 43.7118C154.815 46.0107 152.52 48.1477 149.739 49.3131C148.946 49.6456 148.101 49.9146 147.239 50.1117L147.2 50.108Z" fill="#8DA4A2"/>
<path d="M150.805 53.3134C150.41 53.4038 150.023 53.1399 149.947 52.7542L142.733 17.8678C142.649 17.4968 142.91 17.0969 143.281 17.012C143.484 16.9654 143.683 17.0081 143.833 17.1124C143.982 17.2167 144.107 17.3771 144.139 17.5714L151.353 52.4577C151.44 52.8407 151.188 53.2258 150.805 53.3134Z" fill="#8DA4A2"/>
<path d="M144.979 54.3818C144.584 54.4722 144.196 54.2083 144.121 53.8226L136.907 18.9361C136.817 18.5411 137.131 18.1543 137.467 18.0776C137.85 17.99 138.237 18.2539 138.313 18.6396L145.527 53.5261C145.614 53.9091 145.362 54.2942 144.979 54.3818Z" fill="#8DA4A2"/>
<path d="M194.007 136.226C193.624 136.314 193.238 136.112 193.081 135.758C192.911 135.343 193.093 134.873 193.505 134.691C200.256 131.774 206.026 126.335 209.333 119.76C209.448 119.545 209.638 119.388 209.878 119.333C210.009 119.303 210.209 119.295 210.422 119.397C210.82 119.596 210.983 120.088 210.784 120.486C207.316 127.4 201.253 133.107 194.16 136.179C194.112 136.189 194.067 136.212 194.019 136.223L194.007 136.226Z" fill="#8DA4A2"/>
<path d="M202.868 138.456C202.437 138.554 201.998 138.289 201.897 137.847C201.848 137.631 201.888 137.421 201.996 137.232C202.106 137.056 202.291 136.925 202.491 136.867C206.914 135.83 210.796 132.813 212.896 128.781C213.01 128.566 213.204 128.421 213.431 128.369C213.563 128.339 213.763 128.331 213.99 128.443C214.388 128.641 214.539 129.136 214.328 129.536C212.017 133.969 207.73 137.306 202.853 138.447L202.868 138.456Z" fill="#8DA4A2"/>
<path d="M171.41 68.1209C171.099 68.1921 170.768 68.0663 170.57 67.8092C170.443 67.6369 170.394 67.4214 170.433 67.2108C170.461 67.0028 170.581 66.8117 170.754 66.6841C177.096 62.0341 181.941 55.3587 184.387 47.8846C184.476 47.6124 184.695 47.4112 184.982 47.3455C185.125 47.3127 185.277 47.3157 185.413 47.3601C185.618 47.4268 185.788 47.5642 185.885 47.7687C185.979 47.9612 186.004 48.1821 185.938 48.3863C183.387 56.174 178.342 63.1343 171.731 67.9844C171.647 68.0541 171.542 68.0907 171.434 68.1154L171.41 68.1209Z" fill="#8DA4A2"/>
<path d="M180.392 69.3405C180.021 69.4253 179.638 69.236 179.469 68.8841C179.286 68.4724 179.469 68.0026 179.88 67.8202C182.793 66.5116 185.081 63.9098 186.007 60.8518C186.093 60.5676 186.323 60.3637 186.598 60.3007C186.742 60.2679 186.882 60.2737 187.018 60.3181C187.45 60.4459 187.691 60.8945 187.564 61.3268C186.513 64.829 183.883 67.8112 180.547 69.3049C180.5 69.3158 180.443 69.3415 180.395 69.3524L180.392 69.3405Z" fill="#8DA4A2"/>
<path d="M25.3779 34.4406C25.0907 34.5063 24.7918 34.411 24.6054 34.2017L9.77658 18.161C9.47627 17.8393 9.49565 17.3185 9.81738 17.0182C9.92063 16.919 10.0441 16.8529 10.1877 16.8201C10.4749 16.7544 10.7738 16.8497 10.9602 17.059L25.789 33.0997C26.0921 33.4334 26.0699 33.9422 25.7482 34.2425C25.645 34.3417 25.5215 34.4077 25.3779 34.4406Z" fill="#8DA4A2"/>
<path d="M17.2008 40.3165C17.0811 40.3439 16.8961 40.3611 16.6984 40.2677L5.23824 35.2071C4.83092 35.0232 4.64684 34.5489 4.81877 34.1443C4.9278 33.9053 5.13055 33.7455 5.38188 33.688C5.54944 33.6497 5.73068 33.6712 5.88423 33.7368L17.3444 38.7975C17.7518 38.9814 17.9358 39.4557 17.7519 39.863C17.6549 40.0993 17.4429 40.2737 17.1916 40.3312L17.2008 40.3165Z" fill="#8DA4A2"/>
<path d="M12.2915 51.5028C12.2915 51.5028 12.1719 51.5302 12.0946 51.5227C8.3217 51.4917 4.59692 50.8451 1.03888 49.6063C0.834716 49.5396 0.673961 49.3875 0.579539 49.195C0.485117 49.0025 0.483702 48.7761 0.538373 48.5747C0.629964 48.3144 0.848436 48.1133 1.1237 48.0503C1.26732 48.0175 1.41915 48.0205 1.56997 48.0742C4.97719 49.2594 8.51799 49.8724 12.1151 49.9059C12.5559 49.9058 12.9178 50.2764 12.9179 50.7172C12.9135 51.0834 12.6506 51.4207 12.2915 51.5028Z" fill="#8DA4A2"/>
<path d="M31.3685 31.5586C30.9376 31.6572 30.5139 31.4015 30.4034 30.9734L27.292 18.7506C27.1934 18.3198 27.4436 17.8721 27.8718 17.7616C28.3385 17.6548 28.7411 17.9279 28.8489 18.3441L31.9602 30.5668C32.0588 30.9977 31.8086 31.4454 31.3805 31.5559L31.3565 31.5614L31.3685 31.5586Z" fill="#8DA4A2"/>
<path d="M40.2113 29.9133C40.2113 29.9133 40.0916 29.9407 40.0263 29.9305C39.5855 29.9305 39.2117 29.5627 39.2235 29.1191L39.2576 15.3959C39.2592 15.0176 39.5248 14.6924 39.8839 14.6102C39.9437 14.5966 40.0036 14.5829 40.0689 14.5931C40.2833 14.5944 40.4902 14.673 40.639 14.8279C40.7878 14.9828 40.873 15.19 40.8716 15.4044L40.8376 29.1277C40.836 29.5059 40.5823 29.8284 40.2113 29.9133Z" fill="#8DA4A2"/>
</g>
</g>
</g>
<defs>
<clipPath id="clip0_2007_474">
<rect width="215" height="159" fill="white"/>
</clipPath>
<clipPath id="clip1_2007_474">
<rect width="215" height="159" fill="white"/>
</clipPath>
<clipPath id="clip2_2007_474">
<rect width="215" height="159" fill="white"/>
</clipPath>
</defs>
</svg>
